<svg width="2340" height="140" viewBox="0 0 2340 140" fill="none" xmlns="http://www.w3.org/2000/svg">
    <g clip-path="url(#clip0_48_1199)">
        <g clip-path="url(#clip1_48_1199)" filter="url(#filter0_d_48_1199)">
            <rect width="1220" height="197.077" transform="matrix(1 0 0 -1 560 140.077)" fill="black"/>
            <path d="M445.45 -259.547C430.297 -262.753 422.72 -264.356 416.12 -262.782C410.306 -261.395 405.036 -258.313 400.978 -253.926C396.37 -248.944 394.053 -241.555 389.419 -226.775L351.989 -107.391C347.37 -92.6613 345.061 -85.2962 345.991 -78.5919C346.809 -72.6869 349.359 -67.157 353.319 -62.7007C357.815 -57.6411 364.916 -54.6157 379.118 -48.565L511.306 7.75438C527.833 14.7957 536.096 18.3163 543.567 17.5806C550.129 16.9344 556.282 14.0967 561.034 9.52516C566.444 4.32077 569.131 -4.24995 574.505 -21.3914L621.047 -169.837C626.404 -186.922 629.083 -195.465 627.624 -202.811C626.343 -209.264 622.93 -215.1 617.933 -219.38C612.245 -224.253 603.486 -226.106 585.969 -229.813L445.45 -259.547Z" fill="#25F4EE"/>
            <path d="M1748.82 -13.2375C1752.27 1.8614 1754 9.41084 1758.2 14.7402C1761.9 19.434 1766.91 22.9227 1772.6 24.7636C1779.05 26.8538 1786.73 25.8534 1802.09 23.8526L1904.38 10.5277C1919.69 8.5336 1927.34 7.53656 1933.04 3.87786C1938.05 0.655389 1942 -3.98125 1944.38 -9.44632C1947.09 -15.6512 1946.85 -23.3662 1946.38 -38.7961L1942.74 -157.725C1942.19 -175.681 1941.91 -184.659 1938.11 -191.13C1934.77 -196.814 1929.61 -201.207 1923.46 -203.6C1916.47 -206.324 1907.56 -205.164 1889.75 -202.843L1762.01 -186.203C1744.25 -183.89 1735.37 -182.733 1729.32 -178.325C1724 -174.452 1720.14 -168.904 1718.35 -162.572C1716.32 -155.364 1718.31 -146.636 1722.3 -129.182L1748.82 -13.2375Z" fill="#25F4EE"/>
            <path d="M1800.44 19.6087C1803.89 34.7076 1805.62 42.257 1809.82 47.5864C1813.52 52.2802 1818.53 55.7689 1824.21 57.6098C1830.67 59.6999 1838.35 58.6996 1853.71 56.6988L1956 43.3739C1971.31 41.3798 1978.96 40.3827 1984.65 36.724C1989.67 33.5016 1993.62 28.8649 1996 23.3999C1998.7 17.195 1998.47 9.48002 1997.99 -5.9499L1994.35 -124.879C1993.8 -142.835 1993.53 -151.812 1989.73 -158.284C1986.38 -163.968 1981.22 -168.361 1975.08 -170.754C1968.08 -173.478 1959.18 -172.318 1941.36 -169.997L1813.62 -153.357C1795.87 -151.044 1786.99 -149.887 1780.93 -145.479C1775.62 -141.606 1771.75 -136.058 1769.97 -129.726C1767.93 -122.518 1769.93 -113.79 1773.92 -96.3354L1800.44 19.6087Z" fill="#25F4EE"/>
            <path d="M696.03 105.531C697.293 106.062 697.925 106.327 698.289 106.713C698.61 107.053 698.786 107.456 698.796 107.872C698.808 108.344 698.508 108.835 697.908 109.819L693.627 116.839C693.029 117.819 692.73 118.309 692.245 118.616C691.819 118.886 691.294 119.057 690.737 119.107C690.105 119.164 689.418 118.995 688.044 118.657L676.716 115.868C675.116 115.474 674.317 115.277 673.839 114.895C673.419 114.559 673.166 114.128 673.118 113.671C673.065 113.15 673.413 112.58 674.109 111.439L679.446 102.687C680.139 101.55 680.486 100.981 681.048 100.665C681.542 100.388 682.146 100.241 682.764 100.248C683.468 100.255 684.198 100.562 685.658 101.175L696.03 105.531Z" fill="#FE2C55"/>
            <path d="M665.844 11.0252C665.002 10.6716 664.581 10.4948 664.339 10.2375C664.125 10.0109 664.007 9.74199 664 9.46495C663.993 9.15038 664.193 8.82244 664.593 8.16652L667.446 3.48702C667.845 2.83328 668.044 2.50642 668.367 2.30191C668.652 2.12179 669.002 2.00785 669.373 1.9745C669.794 1.93662 670.252 2.0494 671.168 2.27496L678.721 4.13428C679.787 4.39677 680.32 4.52802 680.638 4.78286C680.918 5.00673 681.087 5.29421 681.119 5.59895C681.155 5.94587 680.923 6.32624 680.459 7.08698L676.901 12.9213C676.438 13.6795 676.207 14.0587 675.833 14.2692C675.503 14.4542 675.1 14.5523 674.688 14.5477C674.219 14.5425 673.733 14.3381 672.759 13.9293L665.844 11.0252Z" fill="#25F4EE"/>
            <path d="M649.376 50.9984C650.024 51.6682 650.348 52.0031 650.777 52.1782C651.155 52.3324 651.587 52.4004 652.019 52.3737C652.509 52.3434 652.997 52.1363 653.971 51.7219L660.921 48.7661C661.892 48.3531 662.377 48.1467 662.658 47.8499C662.905 47.5886 663.042 47.2798 663.05 46.9626C663.06 46.6025 662.831 46.2288 662.373 45.4813L658.598 39.3202C658.065 38.4504 657.799 38.0155 657.365 37.7763C656.984 37.5661 656.517 37.4567 656.039 37.4658C655.495 37.4761 654.93 37.7164 653.8 38.1969L645.135 41.8822C644.009 42.3611 643.445 42.6006 643.161 42.9416C642.912 43.2411 642.806 43.5928 642.861 43.9403C642.924 44.3359 643.299 44.7231 644.049 45.4974L649.376 50.9984Z" fill="#FE2C55"/>
            <path d="M1910 49.3361C1921.28 23.3498 1926.92 10.3564 1925.26 -0.835707C1923.79 -10.6932 1918.42 -19.5514 1909.83 -26.2861C1900.07 -33.9331 1884.35 -37.5685 1852.9 -44.8395L1628.56 -96.7134C1597.22 -103.96 1581.55 -107.584 1566.45 -105.711C1553.15 -104.062 1540.2 -99.4742 1529.24 -92.5283C1516.8 -84.642 1508.14 -72.3992 1490.82 -47.9137L1348.08 153.924C1327.93 182.419 1317.85 196.666 1317.42 209.378C1317.04 220.545 1321.62 230.92 1330.43 238.83C1340.46 247.835 1358.7 252.051 1395.17 260.484L1674.87 325.159C1711.22 333.565 1729.4 337.768 1746.07 334.965C1760.71 332.502 1774.57 326.43 1785.43 317.723C1797.79 307.812 1804.31 292.791 1817.35 262.75L1910 49.3361Z" fill="#E6E6E6"/>
            <path d="M1448.46 24.8672C1449.99 22.9398 1450.75 21.976 1450.86 20.9996C1450.96 20.1396 1450.71 19.2758 1450.14 18.5179C1449.49 17.6573 1448.25 16.9995 1445.78 15.6839L1428.12 6.29784C1425.65 4.98659 1424.42 4.33099 1423.11 4.14932C1421.95 3.98931 1420.77 4.08373 1419.69 4.42067C1418.47 4.80322 1417.47 5.63626 1415.47 7.30232L1398.96 21.036C1396.63 22.9748 1395.46 23.9442 1395.14 25.0012C1394.86 25.9296 1395.01 26.9031 1395.57 27.7645C1396.21 28.7451 1397.65 29.5081 1400.52 31.0339L1422.54 42.7362C1425.4 44.2571 1426.83 45.0175 1428.29 45.1563C1429.58 45.2782 1430.88 45.0797 1431.98 44.5927C1433.24 44.0383 1434.13 42.9242 1435.89 40.696L1448.46 24.8672Z" fill="#25F4EE"/>
            <path d="M1591.13 115.462C1589.91 111.939 1589.3 110.177 1588.14 109.24C1587.12 108.415 1585.82 108.033 1584.38 108.145C1582.76 108.272 1580.91 109.318 1577.21 111.41L1550.85 126.335C1547.17 128.42 1545.32 129.463 1544.03 130.988C1542.88 132.331 1542.04 133.927 1541.59 135.576C1541.09 137.447 1541.34 139.404 1541.83 143.319L1545.95 175.585C1546.53 180.14 1546.82 182.418 1547.91 183.689C1548.86 184.805 1550.23 185.404 1551.79 185.387C1553.56 185.368 1555.71 184.154 1559.99 181.728L1592.86 163.119C1597.14 160.7 1599.27 159.491 1600.64 157.737C1601.84 156.196 1602.64 154.374 1602.92 152.564C1603.24 150.504 1602.54 148.467 1601.13 144.395L1591.13 115.462Z" fill="#25F4EE"/>
            <path d="M946.578 141.326C947.606 142.622 948.12 143.27 948.195 143.926C948.261 144.504 948.092 145.085 947.709 145.595C947.274 146.173 946.442 146.615 944.777 147.5L932.906 153.809C931.247 154.691 930.418 155.131 929.538 155.254C928.763 155.361 927.963 155.298 927.24 155.071C926.419 154.814 925.746 154.254 924.4 153.134L913.305 143.902C911.738 142.599 910.955 141.947 910.739 141.236C910.549 140.612 910.651 139.958 911.029 139.379C911.459 138.72 912.424 138.207 914.354 137.181L929.155 129.314C931.079 128.292 932.041 127.781 933.023 127.688C933.886 127.606 934.76 127.739 935.504 128.066C936.35 128.439 936.945 129.188 938.133 130.686L946.578 141.326Z" fill="#FE2C55"/>
            <path d="M958.733 143.715C959.761 145.011 960.275 145.659 960.35 146.315C960.416 146.893 960.247 147.474 959.863 147.983C959.428 148.562 958.596 149.004 956.932 149.888L945.06 156.198C943.402 157.079 942.573 157.52 941.693 157.642C940.917 157.75 940.118 157.686 939.395 157.46C938.574 157.203 937.901 156.643 936.555 155.523L925.459 146.29C923.893 144.987 923.11 144.335 922.894 143.625C922.704 143.001 922.806 142.346 923.184 141.767C923.614 141.108 924.579 140.595 926.509 139.57L941.31 131.703C943.234 130.681 944.196 130.169 945.178 130.076C946.041 129.994 946.915 130.128 947.658 130.455C948.505 130.828 949.099 131.577 950.288 133.074L958.733 143.715Z" fill="#25F4EE"/>
            <path fill-rule="evenodd" clip-rule="evenodd" d="M948.194 143.927C948.119 143.271 947.605 142.623 946.577 141.327L939.642 132.59L926.509 139.569C924.579 140.595 923.614 141.108 923.184 141.767C922.807 142.346 922.705 143 922.894 143.625C923.111 144.335 923.894 144.987 925.46 146.29L933.877 153.293L944.776 147.501C946.44 146.616 947.272 146.174 947.707 145.595C948.091 145.086 948.26 144.505 948.194 143.927Z" fill="white"/>
            <path d="M1678.28 18.4527C1677.65 17.6572 1677.33 17.2594 1677.28 16.8563C1677.24 16.5014 1677.35 16.1448 1677.58 15.832C1677.85 15.4767 1678.36 15.2052 1679.38 14.6622L1686.67 10.788C1687.69 10.2467 1688.2 9.97612 1688.74 9.90113C1689.22 9.83509 1689.71 9.87406 1690.15 10.0131C1690.66 10.171 1691.07 10.5149 1691.9 11.2026L1698.71 16.8714C1699.67 17.6716 1700.15 18.0718 1700.28 18.5081C1700.4 18.8913 1700.34 19.2931 1700.11 19.6487C1699.84 20.0534 1699.25 20.3683 1698.06 20.9982L1688.98 25.8285C1687.79 26.4562 1687.2 26.7701 1686.6 26.8274C1686.07 26.8777 1685.53 26.7958 1685.08 26.5948C1684.56 26.3659 1684.19 25.9061 1683.46 24.9863L1678.28 18.4527Z" fill="#25F4EE"/>
            <path d="M1624.79 19.4221C1624.28 19.9304 1624.03 20.1846 1623.7 20.3156C1623.41 20.431 1623.08 20.4801 1622.74 20.4567C1622.37 20.43 1622 20.268 1621.26 19.9439L1615.98 17.6319C1615.24 17.3089 1614.87 17.1474 1614.66 16.9183C1614.47 16.7164 1614.37 16.479 1614.37 16.2361C1614.37 15.9603 1614.55 15.6757 1614.91 15.1066L1617.88 10.4155C1618.29 9.75326 1618.5 9.42213 1618.84 9.242C1619.13 9.08377 1619.49 9.0033 1619.86 9.01358C1620.28 9.02528 1620.71 9.21321 1621.56 9.58906L1628.15 12.4716C1629.01 12.8462 1629.44 13.0335 1629.65 13.2966C1629.84 13.5277 1629.91 13.7978 1629.87 14.0634C1629.81 14.3659 1629.52 14.6597 1628.94 15.2474L1624.79 19.4221Z" fill="#FE2C55"/>
            <path d="M1628.46 27.3444C1629.11 27.1242 1629.44 27.0142 1629.76 27.0182C1630.03 27.0218 1630.31 27.0865 1630.54 27.2041C1630.8 27.3376 1630.98 27.5691 1631.34 28.0321L1633.93 31.3353C1634.29 31.7968 1634.47 32.0275 1634.5 32.26C1634.52 32.4648 1634.46 32.6697 1634.33 32.849C1634.18 33.0526 1633.89 33.207 1633.3 33.5158L1628.5 36.0614C1627.82 36.4207 1627.48 36.6004 1627.13 36.631C1626.83 36.6579 1626.52 36.608 1626.25 36.4893C1625.95 36.3543 1625.74 36.0858 1625.32 35.5488L1622.09 31.4304C1621.67 30.8952 1621.47 30.6275 1621.46 30.3695C1621.45 30.1429 1621.54 29.9212 1621.73 29.7402C1621.93 29.5341 1622.31 29.4068 1623.07 29.1523L1628.46 27.3444Z" fill="#25F4EE"/>
        </g>
        <rect x="1780" width="560" height="140" fill="#E6E6E6"/>
        <rect width="567" height="140" fill="black"/>
    </g>
    <path d="M2340 1H0V-1H2340V1Z" fill="#E6E6E6" mask="url(#path-1-inside-1_48_1199)"/>
    <defs>
        <filter id="filter0_d_48_1199" x="536.538" y="-71.0767" width="1266.92" height="244" filterUnits="userSpaceOnUse" color-interpolation-filters="sRGB">
            <feFlood flood-opacity="0" result="BackgroundImageFix"/>
            <feColorMatrix in="SourceAlpha" type="matrix" values="0 0 0 0 0 0 0 0 0 0 0 0 0 0 0 0 0 0 127 0" result="hardAlpha"/>
            <feOffset dy="9.38462"/>
            <feGaussianBlur stdDeviation="11.7308"/>
            <feColorMatrix type="matrix" values="0 0 0 0 0 0 0 0 0 0 0 0 0 0 0 0 0 0 0.12 0"/>
            <feBlend mode="normal" in2="BackgroundImageFix" result="effect1_dropShadow_48_1199"/>
            <feBlend mode="normal" in="SourceGraphic" in2="effect1_dropShadow_48_1199" result="shape"/>
        </filter>
        <clipPath id="clip0_48_1199">
            <path d="M0 140H2340V0H0V140Z" fill="white"/>
        </clipPath>
        <clipPath id="clip1_48_1199">
            <rect width="1220" height="197.077" fill="white" transform="matrix(1 0 0 -1 560 140.077)"/>
        </clipPath>
    </defs>
</svg>
