<svg width="201" height="200" viewBox="0 0 201 200" fill="none" xmlns="http://www.w3.org/2000/svg">
<path d="M159.832 85.8156C159.832 99.0704 149.087 109.816 135.832 109.816C122.577 109.816 111.832 99.0704 111.832 85.8156C111.832 72.5608 122.577 61.8156 135.832 61.8156C149.087 61.8156 159.832 72.5608 159.832 85.8156Z" fill="#D9D9D9" fill-opacity="0.2"/>
<path d="M139.92 139.303C139.92 143.758 143.532 147.369 147.987 147.369C152.442 147.369 156.053 143.758 156.053 139.303C156.053 134.848 152.442 131.236 147.987 131.236C143.532 131.236 139.92 134.848 139.92 139.303Z" fill="#25F4EE"/>
<path d="M56.5825 42.2365C56.5825 43.958 57.9781 45.3536 59.6996 45.3536C61.4212 45.3536 62.8168 43.958 62.8168 42.2365C62.8168 40.5149 61.4212 39.1193 59.6996 39.1193C57.9781 39.1193 56.5825 40.5149 56.5825 42.2365Z" fill="#FF6673"/>
<path fill-rule="evenodd" clip-rule="evenodd" d="M81.044 47.6503C81.044 40.2776 87.0208 34.1185 94.3935 34.1185C101.766 34.1185 107.743 40.2776 107.743 47.6503H122.127V61.8156H66.6411V47.6503H81.044ZM94.4743 46.1718C97.0875 46.1718 99.206 44.0533 99.206 41.4401C99.206 38.8268 97.0875 36.7084 94.4743 36.7084C91.8611 36.7084 89.7426 38.8268 89.7426 41.4401C89.7426 44.0533 91.8611 46.1718 94.4743 46.1718Z" fill="#FF949B"/>
<path d="M100.474 96.4955C100.474 101.722 96.2371 105.959 91.0107 105.959C85.7842 105.959 81.5473 101.722 81.5473 96.4955C81.5473 91.269 85.7842 87.0321 91.0107 87.0321C96.2371 87.0321 100.474 91.269 100.474 96.4955Z" fill="#FF949B"/>
<path d="M131.591 96.4955C131.591 101.722 127.354 105.959 122.128 105.959C116.901 105.959 112.664 101.722 112.664 96.4955C112.664 91.269 116.901 87.0321 122.128 87.0321C127.354 87.0321 131.591 91.269 131.591 96.4955Z" fill="#FF949B"/>
<path d="M160.997 96.4955C160.997 101.722 156.761 105.959 151.534 105.959C146.308 105.959 142.071 101.722 142.071 96.4955C142.071 91.269 146.308 87.0321 151.534 87.0321C156.761 87.0321 160.997 91.269 160.997 96.4955Z" fill="#FF949B"/>
<path fill-rule="evenodd" clip-rule="evenodd" d="M60.7409 61.8815L55.1083 147.925H121.291L126.924 61.8815H60.7409ZM56.3088 47.6864C51.3223 47.6864 47.1914 51.5558 46.8656 56.5316L40.6135 152.038C40.2562 157.496 44.587 162.12 50.0567 162.12H125.723C130.71 162.12 134.84 158.25 135.166 153.275L141.418 57.768C141.776 52.3099 137.445 47.6864 131.975 47.6864H56.3088Z" fill="#5CD6D2"/>
<path fill-rule="evenodd" clip-rule="evenodd" d="M115.765 119.59L66.2349 119.592L66.2347 114.861L115.765 114.859L115.765 119.59Z" fill="#FFEFC7"/>
<path fill-rule="evenodd" clip-rule="evenodd" d="M94.2553 129.3L66.2349 129.301L66.2347 124.57L94.2551 124.569L94.2553 129.3Z" fill="#FFEFC7"/>
<path fill-rule="evenodd" clip-rule="evenodd" d="M124.051 105.762L125.243 87.5594C128.935 88.8495 131.583 92.3632 131.583 96.4955C131.583 101.06 128.351 104.87 124.051 105.762Z" fill="#223E70"/>
<path fill-rule="evenodd" clip-rule="evenodd" d="M115.117 47.6864C119.064 48.5819 122.01 52.1114 122.01 56.3291V61.8144H66.5239V56.3391C66.5239 52.1163 69.474 48.5825 73.4256 47.6864H115.117Z" fill="#223E70"/>
</svg>
